<?xml version="1.0" encoding="UTF-8" standalone="yes"?>
<svg xmlns="http://www.w3.org/2000/svg" xmlns:xlink="http://www.w3.org/1999/xlink" height="1230px" style="width:2148px;height:1230px;" version="1.1" viewBox="0 0 2148 1230" width="2148px"><defs><filter height="300%" id="f1" width="300%" x="-1" y="-1"><feGaussianBlur result="blurOut" stdDeviation="2.0"/><feColorMatrix in="blurOut" result="blurOut2" type="matrix" values="0 0 0 0 0 0 0 0 0 0 0 0 0 0 0 0 0 0 .4 0"/><feOffset dx="4.0" dy="4.0" in="blurOut2" result="blurOut3"/><feBlend in="SourceGraphic" in2="blurOut3" mode="normal"/></filter></defs><g><polygon fill="#FFFFFF" filter="url(#f1)" points="1556.5,644,1566.5,634,1908.5,634,1908.5,1094,1898.5,1104,1556.5,1104,1556.5,644" style="stroke: #000000; stroke-width: 2.0;"/><line style="stroke: #000000; stroke-width: 2.0;" x1="1898.5" x2="1907.5" y1="644" y2="635"/><line style="stroke: #000000; stroke-width: 2.0;" x1="1556.5" x2="1898.5" y1="644" y2="644"/><line style="stroke: #000000; stroke-width: 2.0;" x1="1898.5" x2="1898.5" y1="644" y2="1104"/><text fill="#000000" font-family="sans-serif" font-size="14" font-weight="bold" lengthAdjust="spacingAndGlyphs" textLength="142" x="1657.5" y="659.9951">thread for worker</text><rect fill="#FEFECE" filter="url(#f1)" height="53.9375" style="stroke: #A80036; stroke-width: 1.5;" width="91" x="1573" y="1034"/><ellipse cx="1588" cy="1052.9688" fill="#ADD1B2" rx="11" ry="11" style="stroke: #A80036; stroke-width: 1.0;"/><path d="M1590.3438,1048.6406 L1590.5156,1048.7188 C1590.7344,1048.4063 1590.9375,1048.3125 1591.2344,1048.3125 C1591.5313,1048.3125 1591.8125,1048.4531 1591.9688,1048.7188 C1592.0625,1048.875 1592.0781,1049 1592.0781,1049.4375 L1592.0781,1050.8594 C1592.0781,1051.2813 1592.0469,1051.4688 1591.9375,1051.625 C1591.7656,1051.8438 1591.5,1051.9844 1591.2344,1051.9844 C1591.0156,1051.9844 1590.7813,1051.875 1590.6406,1051.7344 C1590.5,1051.6094 1590.4688,1051.4844 1590.4063,1051.0781 C1590.3125,1050.6719 1590.1406,1050.4531 1589.6563,1050.1719 C1589.1875,1049.9219 1588.5781,1049.7656 1588,1049.7656 C1586.2656,1049.7656 1585.0156,1051.0781 1585.0156,1052.8594 L1585.0156,1053.9531 C1585.0156,1055.6563 1586.3125,1056.75 1588.3594,1056.75 C1589.125,1056.75 1589.8125,1056.625 1590.2344,1056.3594 C1590.4219,1056.2656 1590.4219,1056.2656 1590.875,1055.7813 C1591.0625,1055.5938 1591.2656,1055.5156 1591.4844,1055.5156 C1591.9531,1055.5156 1592.3438,1055.9063 1592.3438,1056.3594 C1592.3438,1056.75 1592.0156,1057.2031 1591.4375,1057.6094 C1590.6875,1058.1563 1589.5313,1058.4531 1588.3125,1058.4531 C1585.4219,1058.4531 1583.3125,1056.5625 1583.3125,1053.9844 L1583.3125,1052.8594 C1583.3125,1050.1406 1585.3125,1048.0625 1587.9375,1048.0625 C1588.8125,1048.0625 1589.4063,1048.2031 1590.3438,1048.6406 Z "/><text fill="#000000" font-family="sans-serif" font-size="12" font-style="italic" lengthAdjust="spacingAndGlyphs" textLength="63" x="1600" y="1050.1387">«IWorker»</text><text fill="#000000" font-family="sans-serif" font-size="12" lengthAdjust="spacingAndGlyphs" textLength="44" x="1609.5" y="1064.1074">Worker</text><line style="stroke: #A80036; stroke-width: 1.5;" x1="1574" x2="1663" y1="1071.9375" y2="1071.9375"/><line style="stroke: #A80036; stroke-width: 1.5;" x1="1574" x2="1663" y1="1079.9375" y2="1079.9375"/><rect fill="#FEFECE" filter="url(#f1)" height="66.7422" style="stroke: #A80036; stroke-width: 1.5;" width="245" x="1582" y="875"/><ellipse cx="1647.25" cy="893.9688" fill="#ADD1B2" rx="11" ry="11" style="stroke: #A80036; stroke-width: 1.0;"/><path d="M1649.5938,889.6406 L1649.7656,889.7188 C1649.9844,889.4063 1650.1875,889.3125 1650.4844,889.3125 C1650.7813,889.3125 1651.0625,889.4531 1651.2188,889.7188 C1651.3125,889.875 1651.3281,890 1651.3281,890.4375 L1651.3281,891.8594 C1651.3281,892.2813 1651.2969,892.4688 1651.1875,892.625 C1651.0156,892.8438 1650.75,892.9844 1650.4844,892.9844 C1650.2656,892.9844 1650.0313,892.875 1649.8906,892.7344 C1649.75,892.6094 1649.7188,892.4844 1649.6563,892.0781 C1649.5625,891.6719 1649.3906,891.4531 1648.9063,891.1719 C1648.4375,890.9219 1647.8281,890.7656 1647.25,890.7656 C1645.5156,890.7656 1644.2656,892.0781 1644.2656,893.8594 L1644.2656,894.9531 C1644.2656,896.6563 1645.5625,897.75 1647.6094,897.75 C1648.375,897.75 1649.0625,897.625 1649.4844,897.3594 C1649.6719,897.2656 1649.6719,897.2656 1650.125,896.7813 C1650.3125,896.5938 1650.5156,896.5156 1650.7344,896.5156 C1651.2031,896.5156 1651.5938,896.9063 1651.5938,897.3594 C1651.5938,897.75 1651.2656,898.2031 1650.6875,898.6094 C1649.9375,899.1563 1648.7813,899.4531 1647.5625,899.4531 C1644.6719,899.4531 1642.5625,897.5625 1642.5625,894.9844 L1642.5625,893.8594 C1642.5625,891.1406 1644.5625,889.0625 1647.1875,889.0625 C1648.0625,889.0625 1648.6563,889.2031 1649.5938,889.6406 Z "/><text fill="#000000" font-family="sans-serif" font-size="12" font-style="italic" lengthAdjust="spacingAndGlyphs" textLength="110" x="1665.75" y="891.1387">«IWorkerFactory»</text><text fill="#000000" font-family="sans-serif" font-size="12" lengthAdjust="spacingAndGlyphs" textLength="90" x="1675.75" y="905.1074">WorkerFactory</text><line style="stroke: #A80036; stroke-width: 1.5;" x1="1583" x2="1826" y1="912.9375" y2="912.9375"/><line style="stroke: #A80036; stroke-width: 1.5;" x1="1583" x2="1826" y1="920.9375" y2="920.9375"/><text fill="#000000" font-family="sans-serif" font-size="11" lengthAdjust="spacingAndGlyphs" textLength="233" x="1588" y="935.1479">std::unique_ptr&lt;IWorker&gt; createWorker()</text><polygon fill="#FBFB77" filter="url(#f1)" points="1572.5,674,1572.5,699.1328,1892.5,699.1328,1892.5,684,1882.5,674,1572.5,674" style="stroke: #A80036; stroke-width: 1.0;"/><polygon fill="#FBFB77" points="1572.5,674,1572.5,699.1328,1727.03,699.1328,1708.69,874.615,1735.03,699.1328,1892.5,699.1328,1892.5,684,1882.5,674,1572.5,674" style="stroke: #A80036; stroke-width: 1.0;"/><line style="stroke: #A80036; stroke-width: 1.0;" x1="1882.5" x2="1882.5" y1="674" y2="684"/><line style="stroke: #A80036; stroke-width: 1.0;" x1="1892.5" x2="1882.5" y1="684" y2="684"/><text fill="#000000" font-family="sans-serif" font-size="13" lengthAdjust="spacingAndGlyphs" textLength="299" x="1578.5" y="691.0669">create a new worker instance for a given config</text><path d="M455,898 C455,888 507.5,888 507.5,888 C507.5,888 560,888 560,898 L560,919.2969 C560,929.2969 507.5,929.2969 507.5,929.2969 C507.5,929.2969 455,929.2969 455,919.2969 L455,898 " fill="#FFFFFF" filter="url(#f1)" style="stroke: #000000; stroke-width: 1.5;"/><path d="M455,898 C455,908 507.5,908 507.5,908 C507.5,908 560,908 560,898 " fill="none" style="stroke: #000000; stroke-width: 1.5;"/><text fill="#000000" font-family="sans-serif" font-size="14" lengthAdjust="spacingAndGlyphs" textLength="85" x="465" y="920.9951">Config Store</text><path d="M1566,1192 C1566,1182 1618.5,1182 1618.5,1182 C1618.5,1182 1671,1182 1671,1192 L1671,1213.2969 C1671,1223.2969 1618.5,1223.2969 1618.5,1223.2969 C1618.5,1223.2969 1566,1223.2969 1566,1213.2969 L1566,1192 " fill="#FFFFFF" filter="url(#f1)" style="stroke: #000000; stroke-width: 1.5;"/><path d="M1566,1192 C1566,1202 1618.5,1202 1618.5,1202 C1618.5,1202 1671,1202 1671,1192 " fill="none" style="stroke: #000000; stroke-width: 1.5;"/><text fill="#000000" font-family="sans-serif" font-size="14" lengthAdjust="spacingAndGlyphs" textLength="85" x="1576" y="1214.9951">Status Store</text><path d="M602,1192 C602,1182 648.5,1182 648.5,1182 C648.5,1182 695,1182 695,1192 L695,1213.2969 C695,1223.2969 648.5,1223.2969 648.5,1223.2969 C648.5,1223.2969 602,1223.2969 602,1213.2969 L602,1192 " fill="#FFFFFF" filter="url(#f1)" style="stroke: #000000; stroke-width: 1.5;"/><path d="M602,1192 C602,1202 648.5,1202 648.5,1202 C648.5,1202 695,1202 695,1192 " fill="none" style="stroke: #000000; stroke-width: 1.5;"/><text fill="#000000" font-family="sans-serif" font-size="14" lengthAdjust="spacingAndGlyphs" textLength="73" x="612" y="1214.9951">Data Store</text><rect fill="#FEFECE" filter="url(#f1)" height="66.7422" style="stroke: #A80036; stroke-width: 1.5;" width="303" x="582" y="414"/><ellipse cx="699.75" cy="432.9688" fill="#ADD1B2" rx="11" ry="11" style="stroke: #A80036; stroke-width: 1.0;"/><path d="M702.0938,428.6406 L702.2656,428.7188 C702.4844,428.4063 702.6875,428.3125 702.9844,428.3125 C703.2813,428.3125 703.5625,428.4531 703.7188,428.7188 C703.8125,428.875 703.8281,429 703.8281,429.4375 L703.8281,430.8594 C703.8281,431.2813 703.7969,431.4688 703.6875,431.625 C703.5156,431.8438 703.25,431.9844 702.9844,431.9844 C702.7656,431.9844 702.5313,431.875 702.3906,431.7344 C702.25,431.6094 702.2188,431.4844 702.1563,431.0781 C702.0625,430.6719 701.8906,430.4531 701.4063,430.1719 C700.9375,429.9219 700.3281,429.7656 699.75,429.7656 C698.0156,429.7656 696.7656,431.0781 696.7656,432.8594 L696.7656,433.9531 C696.7656,435.6563 698.0625,436.75 700.1094,436.75 C700.875,436.75 701.5625,436.625 701.9844,436.3594 C702.1719,436.2656 702.1719,436.2656 702.625,435.7813 C702.8125,435.5938 703.0156,435.5156 703.2344,435.5156 C703.7031,435.5156 704.0938,435.9063 704.0938,436.3594 C704.0938,436.75 703.7656,437.2031 703.1875,437.6094 C702.4375,438.1563 701.2813,438.4531 700.0625,438.4531 C697.1719,438.4531 695.0625,436.5625 695.0625,433.9844 L695.0625,432.8594 C695.0625,430.1406 697.0625,428.0625 699.6875,428.0625 C700.5625,428.0625 701.1563,428.2031 702.0938,428.6406 Z "/><text fill="#000000" font-family="sans-serif" font-size="12" font-style="italic" lengthAdjust="spacingAndGlyphs" textLength="63" x="718.25" y="430.1387">«IModule»</text><text fill="#000000" font-family="sans-serif" font-size="12" lengthAdjust="spacingAndGlyphs" textLength="45" x="727.25" y="444.1074">Module</text><line style="stroke: #A80036; stroke-width: 1.5;" x1="583" x2="884" y1="451.9375" y2="451.9375"/><polygon fill="none" points="593,458.8398,597,462.8398,593,466.8398,589,462.8398" style="stroke: #B38D22; stroke-width: 1.0;"/><text fill="#000000" font-family="sans-serif" font-size="11" lengthAdjust="spacingAndGlyphs" textLength="277" x="602" y="466.1479">std::unordered_map&lt;ConfigManager&gt; configList</text><line style="stroke: #A80036; stroke-width: 1.5;" x1="583" x2="884" y1="472.7422" y2="472.7422"/><rect fill="#FEFECE" filter="url(#f1)" height="192.8516" style="stroke: #A80036; stroke-width: 1.5;" width="188" x="520.5" y="590"/><ellipse cx="563.4" cy="606" fill="#ADD1B2" rx="11" ry="11" style="stroke: #A80036; stroke-width: 1.0;"/><path d="M565.7438,601.6719 L565.9156,601.75 C566.1344,601.4375 566.3375,601.3438 566.6344,601.3438 C566.9313,601.3438 567.2125,601.4844 567.3688,601.75 C567.4625,601.9063 567.4781,602.0313 567.4781,602.4688 L567.4781,603.8906 C567.4781,604.3125 567.4469,604.5 567.3375,604.6563 C567.1656,604.875 566.9,605.0156 566.6344,605.0156 C566.4156,605.0156 566.1813,604.9063 566.0406,604.7656 C565.9,604.6406 565.8688,604.5156 565.8063,604.1094 C565.7125,603.7031 565.5406,603.4844 565.0563,603.2031 C564.5875,602.9531 563.9781,602.7969 563.4,602.7969 C561.6656,602.7969 560.4156,604.1094 560.4156,605.8906 L560.4156,606.9844 C560.4156,608.6875 561.7125,609.7813 563.7594,609.7813 C564.525,609.7813 565.2125,609.6563 565.6344,609.3906 C565.8219,609.2969 565.8219,609.2969 566.275,608.8125 C566.4625,608.625 566.6656,608.5469 566.8844,608.5469 C567.3531,608.5469 567.7438,608.9375 567.7438,609.3906 C567.7438,609.7813 567.4156,610.2344 566.8375,610.6406 C566.0875,611.1875 564.9313,611.4844 563.7125,611.4844 C560.8219,611.4844 558.7125,609.5938 558.7125,607.0156 L558.7125,605.8906 C558.7125,603.1719 560.7125,601.0938 563.3375,601.0938 C564.2125,601.0938 564.8063,601.2344 565.7438,601.6719 Z "/><text fill="#000000" font-family="sans-serif" font-size="12" lengthAdjust="spacingAndGlyphs" textLength="94" x="583.6" y="610.1543">ConfigManager</text><line style="stroke: #A80036; stroke-width: 1.5;" x1="521.5" x2="707.5" y1="622" y2="622"/><ellipse cx="531.5" cy="650.707" fill="#84BE84" rx="3" ry="3" style="stroke: #038048; stroke-width: 1.0;"/><text fill="#000000" font-family="sans-serif" font-size="11" lengthAdjust="spacingAndGlyphs" textLength="106" x="540.5" y="653.0151">start() / startThis()</text><ellipse cx="531.5" cy="663.5117" fill="#84BE84" rx="3" ry="3" style="stroke: #038048; stroke-width: 1.0;"/><text fill="#000000" font-family="sans-serif" font-size="11" lengthAdjust="spacingAndGlyphs" textLength="102" x="540.5" y="665.8198">stop() / stopThis()</text><ellipse cx="531.5" cy="676.3164" fill="#84BE84" rx="3" ry="3" style="stroke: #038048; stroke-width: 1.0;"/><text fill="#000000" font-family="sans-serif" font-size="11" lengthAdjust="spacingAndGlyphs" textLength="112" x="540.5" y="678.6245">reset() / resetThis()</text><ellipse cx="531.5" cy="689.1211" fill="#84BE84" rx="3" ry="3" style="stroke: #038048; stroke-width: 1.0;"/><text fill="#000000" font-family="sans-serif" font-size="11" lengthAdjust="spacingAndGlyphs" textLength="138" x="540.5" y="691.4292">recover() / recoverThis()</text><line style="stroke: #A80036; stroke-width: 1.0;" x1="521.5" x2="595" y1="636.4023" y2="636.4023"/><text fill="#000000" font-family="sans-serif" font-size="11" lengthAdjust="spacingAndGlyphs" textLength="39" x="595" y="639.7104">control</text><line style="stroke: #A80036; stroke-width: 1.0;" x1="634" x2="707.5" y1="636.4023" y2="636.4023"/><ellipse cx="531.5" cy="718.7305" fill="#84BE84" rx="3" ry="3" style="stroke: #038048; stroke-width: 1.0;"/><text fill="#000000" font-family="sans-serif" font-size="11" lengthAdjust="spacingAndGlyphs" textLength="63" x="540.5" y="721.0386">isRunning()</text><ellipse cx="531.5" cy="731.5352" fill="#84BE84" rx="3" ry="3" style="stroke: #038048; stroke-width: 1.0;"/><text fill="#000000" font-family="sans-serif" font-size="11" lengthAdjust="spacingAndGlyphs" textLength="162" x="540.5" y="733.8433">getStatus() / getStatusThis()</text><ellipse cx="531.5" cy="744.3398" fill="#84BE84" rx="3" ry="3" style="stroke: #038048; stroke-width: 1.0;"/><text fill="#000000" font-family="sans-serif" font-size="11" lengthAdjust="spacingAndGlyphs" textLength="62" x="540.5" y="746.6479">getConfig()</text><line style="stroke: #A80036; stroke-width: 1.0;" x1="521.5" x2="582" y1="704.4258" y2="704.4258"/><text fill="#000000" font-family="sans-serif" font-size="11" lengthAdjust="spacingAndGlyphs" textLength="65" x="582" y="707.7339">information</text><line style="stroke: #A80036; stroke-width: 1.0;" x1="647" x2="707.5" y1="704.4258" y2="704.4258"/><polygon fill="#FFFF44" points="531.5,768.9492,535.5,772.9492,531.5,776.9492,527.5,772.9492" style="stroke: #B38D22; stroke-width: 1.0;"/><text fill="#000000" font-family="sans-serif" font-size="11" font-style="italic" lengthAdjust="spacingAndGlyphs" textLength="77" x="540.5" y="776.2573">clearResults()</text><line style="stroke: #A80036; stroke-width: 1.0;" x1="521.5" x2="576" y1="759.6445" y2="759.6445"/><text fill="#000000" font-family="sans-serif" font-size="11" lengthAdjust="spacingAndGlyphs" textLength="77" x="576" y="762.9526">data handling</text><line style="stroke: #A80036; stroke-width: 1.0;" x1="653" x2="707.5" y1="759.6445" y2="759.6445"/><polygon fill="#FBFB77" filter="url(#f1)" points="340.5,8,340.5,335.7891,1126.5,335.7891,1126.5,18,1116.5,8,340.5,8" style="stroke: #A80036; stroke-width: 1.0;"/><polygon fill="#FBFB77" points="340.5,8,340.5,335.7891,729.5,335.7891,733.5,413.711,737.5,335.7891,1126.5,335.7891,1126.5,18,1116.5,8,340.5,8" style="stroke: #A80036; stroke-width: 1.0;"/><line style="stroke: #A80036; stroke-width: 1.0;" x1="1116.5" x2="1116.5" y1="8" y2="18"/><line style="stroke: #A80036; stroke-width: 1.0;" x1="1126.5" x2="1116.5" y1="18" y2="18"/><text fill="#000000" font-family="sans-serif" font-size="13" lengthAdjust="spacingAndGlyphs" textLength="343" x="346.5" y="25.0669">The Module controls and coordinates multiple configs.</text><text fill="#000000" font-family="sans-serif" font-size="13" lengthAdjust="spacingAndGlyphs" textLength="0" x="350.5" y="40.1997"/><text fill="#000000" font-family="sans-serif" font-size="13" lengthAdjust="spacingAndGlyphs" textLength="699" x="346.5" y="55.3325">configList holds all active (running) ConfigManager plus a number of inactive (e.g. initialized, or finished) ones.</text><text fill="#000000" font-family="sans-serif" font-size="13" lengthAdjust="spacingAndGlyphs" textLength="539" x="346.5" y="70.4653">Inactive ConfigManager can be removed from the list to make space for new entries.</text><text fill="#000000" font-family="sans-serif" font-size="13" lengthAdjust="spacingAndGlyphs" textLength="0" x="350.5" y="85.5981"/><text fill="#000000" font-family="sans-serif" font-size="13" font-weight="bold" lengthAdjust="spacingAndGlyphs" textLength="109" x="346.5" y="100.731">used patterns:</text><text fill="#000000" font-family="sans-serif" font-size="13" lengthAdjust="spacingAndGlyphs" textLength="583" x="346.5" y="115.8638">- [Active Object] to decouple config control command invocation from command execution.</text><text fill="#000000" font-family="sans-serif" font-size="13" lengthAdjust="spacingAndGlyphs" textLength="757" x="354.5" y="130.9966">The goal is to introduce concurrency, by using asynchronous method invocation and a scheduler for handling requests.</text><text fill="#000000" font-family="sans-serif" font-size="13" lengthAdjust="spacingAndGlyphs" textLength="271" x="354.5" y="146.1294">(https://en.wikipedia.org/wiki/Active_object,</text><text fill="#000000" font-family="sans-serif" font-size="13" lengthAdjust="spacingAndGlyphs" textLength="360" x="354.5" y="161.2622">http://www.dre.vanderbilt.edu/~schmidt/PDF/Act-Obj.pdf)</text><text fill="#000000" font-family="sans-serif" font-size="13" lengthAdjust="spacingAndGlyphs" textLength="749" x="346.5" y="176.395">- [Command Pattern, Command Queue] To queue invoked commands and execute them in 1…X processing threads.</text><text fill="#000000" font-family="sans-serif" font-size="13" lengthAdjust="spacingAndGlyphs" textLength="483" x="354.5" y="191.5278">Commands must be synchronized with respect to the corresponding config.</text><text fill="#000000" font-family="sans-serif" font-size="13" lengthAdjust="spacingAndGlyphs" textLength="724" x="354.5" y="206.6606">Commands of different configs may be reordered and / or executed concurrently. Commands for the same config</text><text fill="#000000" font-family="sans-serif" font-size="13" lengthAdjust="spacingAndGlyphs" textLength="322" x="354.5" y="221.7935">have to be executed strictly in their queuing order.</text><text fill="#000000" font-family="sans-serif" font-size="13" lengthAdjust="spacingAndGlyphs" textLength="300" x="354.5" y="236.9263">(https://en.wikipedia.org/wiki/Command_queue,</text><text fill="#000000" font-family="sans-serif" font-size="13" lengthAdjust="spacingAndGlyphs" textLength="302" x="354.5" y="252.0591">https://en.wikipedia.org/wiki/Command_pattern,</text><text fill="#000000" font-family="sans-serif" font-size="13" lengthAdjust="spacingAndGlyphs" textLength="437" x="354.5" y="267.1919">http://www.dre.vanderbilt.edu/~schmidt/PDF/CommandRevisited.pdf)</text><text fill="#000000" font-family="sans-serif" font-size="13" lengthAdjust="spacingAndGlyphs" textLength="0" x="350.5" y="282.3247"/><text fill="#000000" font-family="sans-serif" font-size="13" font-weight="bold" lengthAdjust="spacingAndGlyphs" textLength="46" x="346.5" y="297.4575">TODO:</text><text fill="#000000" font-family="sans-serif" font-size="13" lengthAdjust="spacingAndGlyphs" textLength="328" x="346.5" y="312.5903">- query Class_generic_status via ConfigManager (2)</text><text fill="#000000" font-family="sans-serif" font-size="13" lengthAdjust="spacingAndGlyphs" textLength="269" x="346.5" y="327.7231">- remove Store_SQLite_generic_status (3)</text><polygon fill="#FBFB77" filter="url(#f1)" points="6,397,6,497.7969,547,497.7969,547,407,537,397,6,397" style="stroke: #A80036; stroke-width: 1.0;"/><polygon fill="#FBFB77" points="6,397,6,497.7969,343.356,497.7969,520.319,619.462,351.356,497.7969,547,497.7969,547,407,537,397,6,397" style="stroke: #A80036; stroke-width: 1.0;"/><line style="stroke: #A80036; stroke-width: 1.0;" x1="537" x2="537" y1="397" y2="407"/><line style="stroke: #A80036; stroke-width: 1.0;" x1="547" x2="537" y1="407" y2="407"/><text fill="#000000" font-family="sans-serif" font-size="13" lengthAdjust="spacingAndGlyphs" textLength="520" x="12" y="414.0669">The ConfigManager manages and controls exactly one config and its config chain.</text><text fill="#000000" font-family="sans-serif" font-size="13" lengthAdjust="spacingAndGlyphs" textLength="0" x="16" y="429.1997"/><text fill="#000000" font-family="sans-serif" font-size="13" font-weight="bold" lengthAdjust="spacingAndGlyphs" textLength="46" x="12" y="444.3325">TODO:</text><text fill="#000000" font-family="sans-serif" font-size="13" lengthAdjust="spacingAndGlyphs" textLength="362" x="12" y="459.4653">- getStatus() updates Class_generic_status on the fly (2)</text><text fill="#000000" font-family="sans-serif" font-size="13" lengthAdjust="spacingAndGlyphs" textLength="440" x="12" y="474.5981">- stableResultCounts are read updated by the store automatically (3)</text><text fill="#000000" font-family="sans-serif" font-size="13" lengthAdjust="spacingAndGlyphs" textLength="0" x="16" y="489.731"/><rect fill="#FEFECE" filter="url(#f1)" height="53.9375" style="stroke: #A80036; stroke-width: 1.5;" width="152" x="945.5" y="881.5"/><ellipse cx="960.5" cy="900.4688" fill="#ADD1B2" rx="11" ry="11" style="stroke: #A80036; stroke-width: 1.0;"/><path d="M962.8438,896.1406 L963.0156,896.2188 C963.2344,895.9063 963.4375,895.8125 963.7344,895.8125 C964.0313,895.8125 964.3125,895.9531 964.4688,896.2188 C964.5625,896.375 964.5781,896.5 964.5781,896.9375 L964.5781,898.3594 C964.5781,898.7813 964.5469,898.9688 964.4375,899.125 C964.2656,899.3438 964,899.4844 963.7344,899.4844 C963.5156,899.4844 963.2813,899.375 963.1406,899.2344 C963,899.1094 962.9688,898.9844 962.9063,898.5781 C962.8125,898.1719 962.6406,897.9531 962.1563,897.6719 C961.6875,897.4219 961.0781,897.2656 960.5,897.2656 C958.7656,897.2656 957.5156,898.5781 957.5156,900.3594 L957.5156,901.4531 C957.5156,903.1563 958.8125,904.25 960.8594,904.25 C961.625,904.25 962.3125,904.125 962.7344,903.8594 C962.9219,903.7656 962.9219,903.7656 963.375,903.2813 C963.5625,903.0938 963.7656,903.0156 963.9844,903.0156 C964.4531,903.0156 964.8438,903.4063 964.8438,903.8594 C964.8438,904.25 964.5156,904.7031 963.9375,905.1094 C963.1875,905.6563 962.0313,905.9531 960.8125,905.9531 C957.9219,905.9531 955.8125,904.0625 955.8125,901.4844 L955.8125,900.3594 C955.8125,897.6406 957.8125,895.5625 960.4375,895.5625 C961.3125,895.5625 961.9063,895.7031 962.8438,896.1406 Z "/><text fill="#000000" font-family="sans-serif" font-size="12" font-style="italic" lengthAdjust="spacingAndGlyphs" textLength="124" x="972.5" y="897.6387">«IWorkerController»</text><text fill="#000000" font-family="sans-serif" font-size="12" lengthAdjust="spacingAndGlyphs" textLength="88" x="990.5" y="911.6074">WorkerThread</text><line style="stroke: #A80036; stroke-width: 1.5;" x1="946.5" x2="1096.5" y1="919.4375" y2="919.4375"/><line style="stroke: #A80036; stroke-width: 1.5;" x1="946.5" x2="1096.5" y1="927.4375" y2="927.4375"/><polygon fill="#FBFB77" filter="url(#f1)" points="743.5,606,743.5,767.3281,1537.5,767.3281,1537.5,616,1527.5,606,743.5,606" style="stroke: #A80036; stroke-width: 1.0;"/><line style="stroke: #A80036; stroke-width: 1.0;" x1="1527.5" x2="1527.5" y1="606" y2="616"/><line style="stroke: #A80036; stroke-width: 1.0;" x1="1537.5" x2="1527.5" y1="616" y2="616"/><text fill="#000000" font-family="sans-serif" font-size="13" lengthAdjust="spacingAndGlyphs" textLength="373" x="749.5" y="623.0669">The WorkerThread wraps the Worker in a dedicated thread:</text><text fill="#000000" font-family="sans-serif" font-size="13" lengthAdjust="spacingAndGlyphs" textLength="200" x="753.5" y="638.1997">- create a thread for the worker</text><text fill="#000000" font-family="sans-serif" font-size="13" lengthAdjust="spacingAndGlyphs" textLength="241" x="753.5" y="653.3325">- construct the actual worker instance</text><text fill="#000000" font-family="sans-serif" font-size="13" lengthAdjust="spacingAndGlyphs" textLength="101" x="753.5" y="668.4653">- run the worker</text><text fill="#000000" font-family="sans-serif" font-size="13" lengthAdjust="spacingAndGlyphs" textLength="405" x="753.5" y="683.5981">- synchronication between worker (thread) and module (thread)</text><text fill="#000000" font-family="sans-serif" font-size="13" lengthAdjust="spacingAndGlyphs" textLength="98" x="753.5" y="698.731">- error handling</text><text fill="#000000" font-family="sans-serif" font-size="13" lengthAdjust="spacingAndGlyphs" textLength="0" x="753.5" y="713.8638"/><text fill="#000000" font-family="sans-serif" font-size="13" font-weight="bold" lengthAdjust="spacingAndGlyphs" textLength="109" x="749.5" y="728.9966">used patterns:</text><text fill="#000000" font-family="sans-serif" font-size="13" lengthAdjust="spacingAndGlyphs" textLength="773" x="749.5" y="744.1294">- [Mediator] between Worker and ConfigManager -&gt; to avoid threading problems and run worker in own, dedicated thread</text><text fill="#000000" font-family="sans-serif" font-size="13" lengthAdjust="spacingAndGlyphs" textLength="0" x="753.5" y="759.2622"/><polygon fill="#FBFB77" filter="url(#f1)" points="1162,46,1162,298.125,1775,298.125,1775,56,1765,46,1162,46" style="stroke: #A80036; stroke-width: 1.0;"/><line style="stroke: #A80036; stroke-width: 1.0;" x1="1765" x2="1765" y1="46" y2="56"/><line style="stroke: #A80036; stroke-width: 1.0;" x1="1775" x2="1765" y1="56" y2="56"/><text fill="#000000" font-family="sans-serif" font-size="13" font-weight="bold" lengthAdjust="spacingAndGlyphs" textLength="46" x="1168" y="63.0669">TODO:</text><text fill="#000000" font-family="sans-serif" font-size="13" lengthAdjust="spacingAndGlyphs" textLength="0" x="1172" y="78.1997"/><text fill="#000000" font-family="sans-serif" font-size="13" lengthAdjust="spacingAndGlyphs" textLength="588" x="1168" y="93.3325">- The status of a specific config is requested through the corresponding ConfigManager only.</text><text fill="#000000" font-family="sans-serif" font-size="13" lengthAdjust="spacingAndGlyphs" textLength="381" x="1176" y="108.4653">There is no direct access to the status store by the module.</text><text fill="#000000" font-family="sans-serif" font-size="13" lengthAdjust="spacingAndGlyphs" textLength="0" x="1176" y="123.5981"/><text fill="#000000" font-family="sans-serif" font-size="13" lengthAdjust="spacingAndGlyphs" textLength="281" x="1168" y="138.731">phase (1)  (current implementation) - DONE</text><text fill="#000000" font-family="sans-serif" font-size="13" lengthAdjust="spacingAndGlyphs" textLength="307" x="1168" y="153.8638">- Module --&gt; Class_generic_status: reads status</text><text fill="#000000" font-family="sans-serif" font-size="13" lengthAdjust="spacingAndGlyphs" textLength="0" x="1172" y="168.9966"/><text fill="#000000" font-family="sans-serif" font-size="13" lengthAdjust="spacingAndGlyphs" textLength="61" x="1168" y="184.1294">phase (2)</text><text fill="#000000" font-family="sans-serif" font-size="13" lengthAdjust="spacingAndGlyphs" textLength="306" x="1168" y="199.2622">- query Class_generic_status via ConfigManager</text><text fill="#000000" font-family="sans-serif" font-size="13" lengthAdjust="spacingAndGlyphs" textLength="340" x="1168" y="214.395">- getStatus() updates Class_generic_status on the fly</text><text fill="#000000" font-family="sans-serif" font-size="13" lengthAdjust="spacingAndGlyphs" textLength="0" x="1172" y="229.5278"/><text fill="#000000" font-family="sans-serif" font-size="13" lengthAdjust="spacingAndGlyphs" textLength="61" x="1168" y="244.6606">phase (3)</text><text fill="#000000" font-family="sans-serif" font-size="13" lengthAdjust="spacingAndGlyphs" textLength="327" x="1168" y="259.7935">- remove Store_SQLite_generic_status from worker</text><text fill="#000000" font-family="sans-serif" font-size="13" lengthAdjust="spacingAndGlyphs" textLength="418" x="1168" y="274.9263">- stableResultCounts are read updated by the store automatically</text><text fill="#000000" font-family="sans-serif" font-size="13" lengthAdjust="spacingAndGlyphs" textLength="0" x="1172" y="290.0591"/><path d="M885.208,449.7 C1164.28,454.635 1745.45,478.432 1908.5,590 C1948.21,617.172 1959.5,637.382 1959.5,685.5 C1959.5,685.5 1959.5,685.5 1959.5,1062 C1959.5,1123.565 1766.69,1171.42 1671.03,1191.3726 " fill="none" style="stroke: #A80036; stroke-width: 1.0; stroke-dasharray: 7.0,7.0;"/><text fill="#000000" font-family="sans-serif" font-size="13" lengthAdjust="spacingAndGlyphs" textLength="73" x="2015.5" y="905.5669">read status</text><text fill="#000000" font-family="sans-serif" font-size="13" lengthAdjust="spacingAndGlyphs" textLength="183" x="1964.5" y="920.6997">(current implementation) (1)</text><path d="M658.532,481.006 C639.829,492.934 622.1,508.441 611.5,528 C601.401,546.635 597.692,568.421 597.429,589.743 " fill="none" style="stroke: #A80036; stroke-width: 1.0;"/><text fill="#000000" font-family="sans-serif" font-size="13" lengthAdjust="spacingAndGlyphs" textLength="73" x="612.5" y="541.0669">read status</text><text fill="#000000" font-family="sans-serif" font-size="13" lengthAdjust="spacingAndGlyphs" textLength="69" x="618.5" y="556.1997">(TODO) (2)</text><path d="M724.309,481.012 C717.378,503.689 706.95,534.357 694.5,560 C689.704,569.879 684.295,579.936 678.61,589.841 " fill="none" style="stroke: #A80036; stroke-width: 1.0;"/><text fill="#000000" font-family="sans-serif" font-size="13" lengthAdjust="spacingAndGlyphs" textLength="51" x="708.5" y="548.5669">controls</text><text fill="#000000" font-family="sans-serif" font-size="13" lengthAdjust="spacingAndGlyphs" textLength="7" x="676.2505" y="578.944">*</text><path d="M640.107,481.012 C517.729,526.524 318.5,611.916 318.5,685.5 C318.5,685.5 318.5,685.5 318.5,1062 C318.5,1183.6017 510.954,1200.8315 601.919,1202.1836 " fill="none" style="stroke: #A80036; stroke-width: 1.0;"/><text fill="#000000" font-family="sans-serif" font-size="13" lengthAdjust="spacingAndGlyphs" textLength="29" x="352.5" y="905.5669">read</text><text fill="#000000" font-family="sans-serif" font-size="13" lengthAdjust="spacingAndGlyphs" textLength="95" x="323.5" y="920.6997">(via OutputPin)</text><path d="M692.869,783.136 C802.121,915.908 989.275,1141.1372 1010.5,1152 C1106.78,1201.2745 1436.46,1203.4316 1565.81,1202.2902 " fill="none" style="stroke: #A80036; stroke-width: 1.0;"/><text fill="#000000" font-family="sans-serif" font-size="13" lengthAdjust="spacingAndGlyphs" textLength="71" x="876.5" y="992.5669">read / write</text><path d="M529.298,783.343 C523.539,792.937 518.463,802.883 514.5,813 C504.899,837.508 504.565,868.295 505.664,887.939 " fill="none" style="stroke: #A80036; stroke-width: 1.0;"/><text fill="#000000" font-family="sans-serif" font-size="13" lengthAdjust="spacingAndGlyphs" textLength="71" x="515.5" y="833.5669">read / write</text><path d="M607.366,783.295 C604.065,846.185 602.28,930.163 609.5,1004 C615.946,1069.916 634.219,1146.4652 643.277,1181.7867 " fill="none" style="stroke: #A80036; stroke-width: 1.0;"/><text fill="#000000" font-family="sans-serif" font-size="13" lengthAdjust="spacingAndGlyphs" textLength="31" x="610.5" y="992.5669">clear</text><path d="M653.399,1181.8854 C655.414,1172.849 657.505,1161.9452 658.5,1152 C659.915,1137.8484 659.075,1134.2106 658.5,1120 C652.961,983.141 647.129,949.077 631.5,813 C630.575,804.95 629.565,796.618 628.512,788.25 " fill="none" style="stroke: #A80036; stroke-width: 1.0;"/><polygon fill="#A80036" points="627.852,783.038,625.0152,792.4695,628.4806,787.9983,632.9518,791.4637,627.852,783.038" style="stroke: #A80036; stroke-width: 1.0;"/><text fill="#000000" font-family="sans-serif" font-size="13" lengthAdjust="spacingAndGlyphs" textLength="179" x="653.5" y="985.0669">automatically update status</text><text fill="#000000" font-family="sans-serif" font-size="13" lengthAdjust="spacingAndGlyphs" textLength="94" x="700" y="1000.1997">(TODO) (3) ???</text><path d="M708.597,773.601 C714.147,777.033 719.796,780.198 725.5,783 C784.959,812.205 812.279,783.315 871.5,813 C890.638,822.593 890.004,832.665 907.5,845 C926.409,858.33 948.451,871.006 968.087,881.413 " fill="none" style="stroke: #A80036; stroke-width: 1.0;"/><text fill="#000000" font-family="sans-serif" font-size="13" lengthAdjust="spacingAndGlyphs" textLength="23" x="908.5" y="833.5669">has</text><path d="M999.55,881.307 C977.122,854.842 944.484,817.256 936.5,813 C852.914,768.442 811.761,822.129 725.5,783 C721.335,781.111 717.206,779.015 713.131,776.751 " fill="none" style="stroke: #A80036; stroke-width: 1.0;"/><polygon fill="#A80036" points="708.73,774.231,714.5537,782.1736,713.0694,776.7149,718.528,775.2306,708.73,774.231" style="stroke: #A80036; stroke-width: 1.0;"/><text fill="#000000" font-family="sans-serif" font-size="13" lengthAdjust="spacingAndGlyphs" textLength="179" x="968.5" y="826.0669">automatically update status</text><text fill="#000000" font-family="sans-serif" font-size="13" lengthAdjust="spacingAndGlyphs" textLength="69" x="1027.5" y="841.1997">(TODO) (2)</text><path d="M1171.36,767.107 C1176.59,793.634 1176.29,822.204 1161.5,845 C1146.94,867.442 1122.24,881.896 1097.6,891.175 " fill="none" style="stroke: #A80036; stroke-width: 1.0; stroke-dasharray: 7.0,7.0;"/><path d="M1097.72,928.714 C1223.45,960.411 1470.59,1022.712 1572.69,1048.452 " fill="none" style="stroke: #A80036; stroke-width: 1.0;"/><text fill="#000000" font-family="sans-serif" font-size="13" lengthAdjust="spacingAndGlyphs" textLength="28" x="1392.5" y="992.5669">runs</text><path d="M1572.69,1068.588 C1409.81,1092.013 859.617,1171.1384 695.249,1194.7769 " fill="none" style="stroke: #A80036; stroke-width: 1.0;"/><text fill="#000000" font-family="sans-serif" font-size="13" lengthAdjust="spacingAndGlyphs" textLength="30" x="1193.5" y="1140.5669">write</text><path d="M1618.5,1088.239 C1618.5,1115.389 1618.5,1157.1841 1618.5,1181.6889 " fill="none" style="stroke: #A80036; stroke-width: 1.0; stroke-dasharray: 7.0,7.0;"/><text fill="#000000" font-family="sans-serif" font-size="13" lengthAdjust="spacingAndGlyphs" textLength="74" x="1674" y="1133.0669">write status</text><text fill="#000000" font-family="sans-serif" font-size="13" lengthAdjust="spacingAndGlyphs" textLength="183" x="1623.5" y="1148.1997">(current implementation) (1)</text><path d="M1685.84,942.156 C1671.05,968.037 1650.53,1003.941 1636.04,1029.298 " fill="none" style="stroke: #A80036; stroke-width: 1.0;"/><polygon fill="#A80036" points="1633.41,1033.906,1641.348,1028.0761,1635.8905,1029.5647,1634.4019,1024.1072,1633.41,1033.906" style="stroke: #A80036; stroke-width: 1.0;"/><text fill="#000000" font-family="sans-serif" font-size="13" lengthAdjust="spacingAndGlyphs" textLength="48" x="1668.5" y="992.5669">creates</text></g></svg>